<svg width="149" height="20" fill="none" xmlns="http://www.w3.org/2000/svg"><g clip-path="url(#clip0)" fill="#AEAEAE"><path d="M32.766 17.285a7.28 7.28 0 01-5.205-12.41A7.274 7.274 0 0140 10.004a7.266 7.266 0 01-7.233 7.28zm0-17.285A9.99 9.99 0 0023.5 6.133a9.997 9.997 0 002.132 10.909 9.987 9.987 0 0010.893 2.19 9.994 9.994 0 006.179-9.238c0-5.5-4.441-9.965-9.938-9.994zm36.903.576a.263.263 0 00-.224.128l-10.242 13.93L48.961.705a.263.263 0 00-.227-.128.271.271 0 00-.272.268v18.56h2.71V8.443l7.871 10.633a.208.208 0 00.32 0l7.872-10.633v10.96h2.71V.844a.274.274 0 00-.276-.267zM86.507 9.93h-6.313V3.294h6.313a3.313 3.313 0 010 6.628v.008zm0-9.362h-9.03v18.828h2.709v-6.74h6.313a6.039 6.039 0 006.038-6.04A6.039 6.039 0 0086.5.576M10.396 17.285A7.28 7.28 0 017.255 3.421a7.275 7.275 0 018.86 2.136l1.947-1.923A9.987 9.987 0 00.375 10.006a9.987 9.987 0 0017.686 6.372l-1.946-1.923a7.192 7.192 0 01-5.718 2.83zM124.657 8.27l-2.074-.47c-2.23-.48-2.398-2-2.398-2.475 0-1.54 1.227-2.423 3.365-2.423 2.198 0 3.804 1.491 4.295 1.999l1.907-1.875c-1.791-1.879-3.817-2.798-6.202-2.798-3.632 0-6.074 2.043-6.074 5.085 0 .967 0 3.91 4.883 5.112l2.27.536c2.106.58 3.129 1.6 3.129 3.11 0 1.771-1.707 3.006-4.144 3.006-2.61 0-4.216-1.795-4.695-2.398l-1.883 1.855c1.283 1.463 3.473 3.198 6.606 3.198 3.904 0 6.849-2.439 6.849-5.669 0-2.894-1.998-4.9-5.814-5.8m18.213.007l-2.074-.47c-2.229-.48-2.397-2-2.397-2.475 0-1.54 1.226-2.423 3.364-2.423 2.198 0 3.804 1.491 4.292 1.999l1.91-1.875c-1.79-1.879-3.82-2.798-6.202-2.798-3.632 0-6.074 2.043-6.074 5.085 0 .967 0 3.91 4.884 5.112l2.281.524c2.102.58 3.125 1.6 3.125 3.11 0 1.771-1.702 3.006-4.14 3.006-2.609 0-4.22-1.795-4.695-2.398l-1.91 1.875c1.283 1.463 3.472 3.198 6.605 3.198 3.904 0 6.849-2.439 6.849-5.669 0-2.894-1.998-4.9-5.814-5.8m-42.453 3.582l3.101-5.917 3.105 5.917h-6.206zM103.542.408a.276.276 0 00-.248.16L93.42 19.404h3.065l2.526-4.825h9.058l2.53 4.825h3.061L103.79.568a.281.281 0 00-.248-.16z"/><path d="M28.494 12.36l1.914 1.927 6.626-6.664-1.919-1.926-6.62 6.663z"/></g><defs><clipPath id="clip0"><path fill="#fff" transform="translate(.375)" d="M0 0h148.333v20H0z"/></clipPath></defs></svg>