<svg width="140" height="26" fill="none" xmlns="http://www.w3.org/2000/svg"><g clip-path="url(#clip0)" fill="#AEAEAE"><path fill-rule="evenodd" clip-rule="evenodd" d="M16.747 4.882l-6.24 6.863L.709 6.794v2.97l1.318.691V20.75L12.403 26l10.4-5.228v-9.925l1.317.645V8.59l-7.373-3.708zm4.137 13.979l-8.458 4.191-7.812-3.869v-7.53l6.494 3.27 6.264-6.84 3.49 1.774.022 9.004z"/><path fill-rule="evenodd" clip-rule="evenodd" d="M5.215 4.974V1.911L6.948 0l2.75 1.382v2.671L7.735 6.241l-2.52-1.267zm10.654 16.558V16.65l2.588-1.29v4.883l-2.588 1.29zm81.536-1.612a1.364 1.364 0 01-2.727 0c0-.76.624-1.358 1.364-1.358a1.35 1.35 0 011.363 1.358z"/><path d="M28.118 5.734h2.68v6.057h6.957V5.734h2.681V20.98h-2.68v-6.863h-6.957v6.863h-2.681V5.734zm13.636 9.719c0-3.363 2.033-5.804 5.592-5.804 3.56 0 5.593 2.441 5.593 5.804 0 3.385-2.033 5.826-5.593 5.826-3.559 0-5.592-2.441-5.592-5.826zm8.736 0c0-1.889-.971-3.892-3.144-3.892-2.195 0-3.143 1.98-3.143 3.892 0 1.911.971 3.915 3.143 3.915 2.173-.023 3.144-2.004 3.144-3.915zm3.836-5.504h2.311v1.543h.07c.74-1.083 1.64-1.843 3.397-1.843 1.34 0 2.611.576 3.097 1.843.809-1.129 1.872-1.843 3.467-1.843 2.334 0 3.697 1.014 3.697 3.708v7.623h-2.45v-6.45c0-1.75-.115-2.97-2.01-2.97-1.641 0-2.358 1.082-2.358 2.947v6.472h-2.45v-7.093c0-1.52-.462-2.326-1.94-2.326-1.272 0-2.427 1.013-2.427 2.855v6.54h-2.45V9.95h.046zm19.899 6.148c0 1.728.947 3.27 2.981 3.27 1.41 0 2.265-.621 2.704-1.842h2.311c-.531 2.418-2.588 3.754-5.015 3.754-3.467 0-5.408-2.418-5.408-5.803 0-3.132 2.057-5.827 5.362-5.827 3.49 0 5.639 3.132 5.223 6.448h-8.158zm5.685-1.612c-.092-1.543-1.132-2.924-2.773-2.924-1.687 0-2.843 1.29-2.912 2.924h5.685zm5.5 2.948c.14 1.405 1.203 1.912 2.497 1.912.924 0 2.519-.185 2.473-1.451-.07-1.29-1.85-1.428-3.629-1.843-1.803-.391-3.559-1.013-3.559-3.27 0-2.418 2.612-3.155 4.622-3.155 2.265 0 4.322.944 4.623 3.386h-2.543c-.208-1.152-1.178-1.474-2.241-1.474-.717 0-2.011.16-2.011 1.128 0 1.198 1.803 1.359 3.605 1.773 1.78.415 3.582 1.037 3.582 3.224 0 2.626-2.657 3.593-4.945 3.593-2.774 0-4.854-1.244-4.9-3.846h2.427v.023zm21.749-4.007c-.37-1.635-1.364-2.648-3.121-2.648-2.588 0-3.882 2.349-3.882 4.698s1.294 4.698 3.882 4.698c1.664 0 3.051-1.313 3.213-3.132h1.34c-.369 2.648-2.103 4.26-4.553 4.26-3.374 0-5.223-2.671-5.223-5.826s1.849-5.827 5.223-5.827c2.358 0 4.184 1.267 4.484 3.777h-1.363zm12.572 2.05c0 3.155-1.849 5.826-5.223 5.826-3.375 0-5.223-2.671-5.223-5.826s1.848-5.827 5.223-5.827c3.374 0 5.223 2.672 5.223 5.827zm-9.106 0c0 2.349 1.294 4.698 3.883 4.698 2.588 0 3.882-2.35 3.882-4.698 0-2.35-1.294-4.698-3.882-4.698-2.612 0-3.883 2.349-3.883 4.698zm10.469-5.504h1.248v1.865h.07c.716-1.313 1.872-2.188 3.628-2.188 1.456 0 2.773.714 3.166 2.165.67-1.45 2.057-2.165 3.513-2.165 2.427 0 3.652 1.267 3.652 3.87v7.46h-1.341v-7.415c0-1.82-.693-2.786-2.611-2.786-2.335 0-3.005 1.911-3.005 3.96v6.242h-1.34v-7.462c.023-1.497-.601-2.74-2.311-2.74-2.335 0-3.282 1.75-3.305 4.053v6.149h-1.341V9.972h-.023zm18.281-.3c0 .737-.601 1.336-1.364 1.336a1.344 1.344 0 01-1.363-1.336c0-.737.601-1.335 1.386-1.335.74 0 1.341.598 1.341 1.335zm-2.381 0c0 .599.44 1.06 1.04 1.06.578 0 1.017-.461 1.017-1.06s-.439-1.06-1.04-1.06c-.577 0-1.017.485-1.017 1.06zm.809.691h-.3V9.027c.115-.023.3-.046.508-.046.255 0 .37.046.463.116.092.046.138.16.138.276 0 .161-.115.276-.277.322v.023c.139.046.185.138.231.323.046.207.069.276.093.322h-.324c-.046-.046-.069-.161-.116-.322-.023-.138-.115-.208-.277-.208h-.139v.53zm.024-.737h.138c.162 0 .301-.046.301-.184 0-.115-.093-.207-.278-.207-.069 0-.138 0-.161.023v.368z"/></g><defs><clipPath id="clip0"><path fill="#fff" transform="translate(.708)" d="M0 0h138.667v26H0z"/></clipPath></defs></svg>