<svg width="111" height="26" fill="none" xmlns="http://www.w3.org/2000/svg"><g clip-path="url(#clip0)" fill-rule="evenodd" clip-rule="evenodd" fill="#AEAEAE"><path d="M4.383 5.727l8.643 2.42a.495.495 0 00.5-.175l3.159-4.396a.333.333 0 00-.083-.46L12.128.071a.49.49 0 00-.526.01l-7.27 5.356c-.144.109-.12.24.051.29zM18.48 1.722l.404 9.09a.5.5 0 00.316.427l5.1 1.689c.082.024.17.015.246-.026a.332.332 0 00.158-.194l1.47-5.26a.51.51 0 00-.173-.504l-7.265-5.36c-.146-.106-.26-.044-.256.138zm8.11 12.363l-8.396 3.199a.496.496 0 00-.301.437l-.007 5.442a.333.333 0 00.1.231.321.321 0 00.231.091l5.384-.206a.49.49 0 00.419-.322l2.78-8.667c.052-.174-.043-.267-.21-.205zm-9.084 11.65l-5.591-7.114a.493.493 0 00-.504-.156l-5.104 1.673a.324.324 0 00-.185.168.333.333 0 00-.014.253l1.855 5.132a.5.5 0 00.433.303l8.983.006c.178-.003.236-.121.127-.265zM3.5 20.529L.727 11.858a.504.504 0 01.151-.511l4.237-3.378a.323.323 0 01.456.062l3.146 4.409a.506.506 0 01.009.533l-4.94 7.595c-.1.15-.23.133-.286-.038zm104.456-9.198h.439l.649 1.938.645-1.938h.436v2.292h-.293v-1.352l.004-.232.002-.349-.644 1.933h-.303l-.652-1.933v.07c0 .056.002.142.006.257l.004.254v1.352h-.293v-2.292zm-.274 0v.274h-.761v2.018h-.309v-2.018h-.761v-.273h1.831zM71.21 19.875c-1.3 0-2.547-.54-2.547-2.185v-3.905c.58-.624 1.572-1.145 2.615-1.145 2.206 0 2.906 1.944 2.906 3.749 0 2.236-1.18 3.486-2.974 3.486zm.717-8.553a4.124 4.124 0 00-1.815.429c-.565.28-1.06.685-1.45 1.186l.085-1.614h-.597l-2.48.867v.416l1.282.61v9.97c0 .799-.58.885-1.367.99v.677h4.445v-.676c-.785-.106-1.368-.192-1.368-.99v-3.019c.546.418 1.334.696 2.36.696 2.698 0 4.92-1.996 4.92-5.204 0-2.393-1.383-4.338-4.015-4.338zm18.297-3.415c-1.205.051-1.846.242-1.846 1.405V20.69h-.827l-8.71-10.594v8.444c0 1.162.642 1.352 1.847 1.406v.744h-4.821v-.744c1.202-.054 1.843-.244 1.843-1.406V9.052c-.72-.903-.961-1.127-1.843-1.145v-.745h3.084l8.296 10.084V9.312c0-1.162-.64-1.354-1.845-1.405V7.16h4.822v.746zm14.424 11.864c-.428.485-1.197 1.093-2.377 1.093-1.3 0-2.48-.678-2.48-2.464v-5.949h-1.315v-.608c.907-.555 1.641-1.213 2.513-2.323h.513v1.976h2.667v.955h-2.667v5.343c0 1.248.53 1.801 1.573 1.801.461 0 .905-.086 1.368-.309l.205.485zm-10.719-7.373c1.538 0 2.343 1.007 2.343 2.22h-4.77c.188-1.298 1.076-2.22 2.427-2.22zm.803 6.956c-2.256 0-3.282-1.476-3.282-3.868h6.702V15c0-2.08-1.3-3.678-3.797-3.678-2.614 0-4.53 2.031-4.53 5.067 0 2.479 1.625 4.475 4.376 4.475 2.411 0 3.592-1.39 3.966-2.656l-.496-.225c-.564.712-1.52 1.37-2.94 1.37zm-50.724-2.481h.632l-.632 3.816H33.313v-.744c1.282-.054 1.966-.244 1.966-1.406V9.312c0-1.162-.684-1.354-1.966-1.405V7.16h5.863v.746c-1.282.051-1.965.243-1.965 1.405v9.122c0 1.04.565 1.302 1.965 1.302h1.619c1.708 0 2.12-.85 3.214-2.863zm16.973 2.915c-2.052 0-3.247-1.873-3.247-4.11 0-1.893.853-3.28 2.562-3.28 2.053 0 3.25 1.873 3.25 4.11 0 1.892-.856 3.28-2.565 3.28zm-.172-8.466c-2.632 0-4.887 1.908-4.887 4.944 0 2.672 1.846 4.598 4.546 4.598 2.631 0 4.889-1.908 4.889-4.944 0-2.671-1.846-4.598-4.548-4.598zm-10.425 8.465c-2.052 0-3.248-1.872-3.248-4.11 0-1.892.854-3.28 2.563-3.28 2.051 0 3.248 1.874 3.248 4.11 0 1.893-.854 3.28-2.563 3.28zm-.17-8.464c-2.634 0-4.89 1.907-4.89 4.943 0 2.672 1.846 4.598 4.545 4.598 2.634 0 4.89-1.908 4.89-4.944 0-2.671-1.843-4.598-4.546-4.598z"/></g><defs><clipPath id="clip0"><path fill="#fff" transform="translate(.708)" d="M0 0h109.417v26H0z"/></clipPath></defs></svg>