<svg width="137" height="25" fill="none" xmlns="http://www.w3.org/2000/svg"><g clip-path="url(#clip0)" fill="#AEAEAE"><path d="M10.084 12.763c-.874 0-1.313-.699-1.575-1.312-.262-.613-.174-1.135-.786-1.135-.612 0-2.099 1.834-2.361 4.283 0 .263-.088 1.922-.088 2.797v2.623c0 .96-.086 2.185.088 2.884.174.963.437 1.05 1.136 1.4.263.086.35.173.525.173v.088H.375v-.088c.174 0 .263-.087.524-.174.788-.35.963-.436 1.137-1.4.175-.698.088-1.922.088-2.883v-9.091c-.088-.7-.263-.874-.613-1.137-.35-.262-.7-.262-.963-.35v-.087h4.461c.175 0 .175.088.175.175v4.021c.436-1.749 1.312-2.886 1.836-3.41.526-.523 1.401-1.135 2.538-1.135.524 0 1.136.174 1.574.612.263.263.525.785.525 1.485.088.873-.435 1.661-1.573 1.661zm14.084 2.972h-9.36c0 4.195.524 6.294 1.575 7.518.786.96 1.574 1.135 2.623 1.135 2.887 0 4.373-2.36 4.987-4.807h.175c-.613 3.058-2.624 5.157-5.686 5.157-1.75 0-3.674-.437-4.987-1.837-1.4-1.572-1.924-3.408-1.924-5.943 0-4.808 2.712-7.954 6.56-7.954 4.374 0 6.3 2.971 6.3 5.769-.177.263-.177.612-.263.962zm-4.2-5.856c-.612-.613-1.136-.787-2.01-.787-.788 0-1.313.174-1.837.787-.788.873-1.224 2.797-1.313 5.594h5.16c1.05 0 1.139 0 1.139-1.574-.09-2.098-.613-3.498-1.138-4.02zm14.87 14.86c-.873 0-1.573 0-1.923-.264-.437-.263-.786-.962-.7-2.273-.35 1.224-1.573 2.536-3.849 2.536-2.099 0-3.936-1.224-3.936-3.76 0-.96.262-1.747.875-2.27 1.136-1.05 2.623-1.138 4.11-1.75 2.012-.786 2.975-1.748 2.975-2.797v-2.71c0-1.922-.525-2.272-2.011-2.272-.788 0-1.225.173-1.575.523-.35.35-.524 1.136-.524 2.186 0 1.136-.613 1.573-1.574 1.573-.788 0-1.4-.437-1.4-1.312 0-.612.174-1.049.612-1.486.788-.962 2.975-1.572 4.462-1.572 2.624 0 5.16.962 5.16 3.496 0 1.137-.088 6.82-.088 8.917 0 1.572 0 2.097.352 2.447a1.106 1.106 0 00.786.35c.35 0 .612-.088.963-.263v.088c-.44.262-1.576.612-2.714.612zm-4.897-7.78c-.963.523-1.4.873-1.75 1.398-.35.612-.612 1.573-.612 2.536 0 2.01.786 3.146 2.187 3.146.262 0 .613 0 .874-.173.787-.35 1.487-1.574 1.487-2.71v-5.944c-.437.784-1.224 1.221-2.186 1.746zm7.172 7.43c.175-.088.437-.176.614-.263.612-.263.874-.437 1.05-1.4.173-.698.173-1.834.173-2.884V4.369c0-.612 0-2.271-.087-2.883-.087-.7-.262-.963-.613-1.137-.35-.263-.7-.263-.962-.35h4.46c.175 0 .175 0 .175.263v19.756c0 .96 0 2.098.088 2.883.174.963.437 1.137 1.223 1.4.175.087.264.087.437.174v.088h-6.56v-.175h.002zm16.183-1.925c-.524 1.137-2.1 2.274-3.674 2.274-1.4 0-2.274-.175-3.06-.963-.613-.612-.964-1.312-.964-2.621 0-.7.088-9.965.175-11.714-.524 0-1.574 0-2.1-.088v-.087c2.187-.523 3.587-1.661 5.075-6.469h.086v6.381h3.5v.174h-3.5l-.174 12.763c0 1.312.35 2.098 1.837 2.098 1.224 0 2.187-.96 2.624-1.835l.175.087zm6.037 2.274c-3.5 0-7.261-3.06-7.261-7.868 0-4.806 3.762-7.865 7.26-7.865 3.5 0 7.349 2.971 7.349 7.865 0 4.809-3.762 7.868-7.348 7.868zm2.362-14.599c-.7-.874-1.575-1.049-2.362-1.049-.788 0-1.663.262-2.275.962-1.05 1.137-1.661 4.02-1.661 6.731 0 2.798.612 5.506 1.661 6.73.7.874 1.575 1.05 2.362 1.05.787 0 1.575-.175 2.36-1.05.965-1.136 1.664-3.933 1.664-6.73-.087-2.71-.7-5.419-1.749-6.644zm14.082 2.624c-.874 0-1.312-.699-1.573-1.312-.263-.613-.175-1.136-.789-1.136-.612 0-2.099 1.835-2.36 4.284 0 .263-.087 1.922-.087 2.797v2.623c0 .96-.088 2.185.086 2.883.175.963.437 1.05 1.138 1.4.263.087.349.174.524.174v.088h-6.56v-.088c.173 0 .263-.087.524-.174.787-.35.962-.436 1.136-1.4.175-.698.088-1.922.088-2.883v-9.092c-.088-.7-.263-.873-.612-1.137-.352-.261-.7-.261-.964-.348v-.088h4.462c.175 0 .175.088.175.175v4.021c.436-1.749 1.311-2.886 1.836-3.41.525-.523 1.4-1.135 2.537-1.135.524 0 1.137.174 1.574.612.263.263.525.785.525 1.485.004.873-.523 1.661-1.66 1.661zM77.44 25c-1.05 0-1.925-.787-1.925-1.923 0-1.135.874-1.922 1.925-1.922 1.05 0 1.923.699 1.923 1.922C79.277 24.213 78.49 25 77.44 25zm10.058-.262c-1.924 0-3.674-.787-4.81-1.922-1.488-1.487-2.012-3.586-2.012-6.12 0-4.808 3.674-7.692 6.91-7.692 2.188 0 3.848.785 4.462 1.572.524.613.786 1.136.786 1.662 0 1.136-.786 1.573-1.487 1.573-1.223 0-1.662-.787-1.75-1.923-.262-2.01-.612-2.71-2.099-2.71-.612 0-1.573.264-2.1.874-.786.962-1.224 3.235-1.224 6.031 0 3.498.438 5.77 1.313 7.08.7.963 1.574 1.224 2.362 1.224 3.236 0 4.636-2.798 5.16-4.895h.174c-.874 2.972-2.711 5.246-5.685 5.246zm12.772 0c-3.5 0-7.26-3.06-7.26-7.868 0-4.806 3.76-7.865 7.26-7.865 3.499 0 7.347 2.971 7.347 7.865 0 4.809-3.849 7.868-7.347 7.868zm2.362-14.599c-.701-.874-1.575-1.049-2.362-1.049-.787 0-1.663.262-2.274.962-1.05 1.137-1.663 4.02-1.663 6.731 0 2.798.612 5.506 1.663 6.73.7.874 1.574 1.05 2.361 1.05.787 0 1.574-.175 2.362-1.05.962-1.136 1.662-3.933 1.662-6.73-.174-2.71-.787-5.419-1.749-6.644zm22.48 14.25c.175-.088.263-.176.524-.263.701-.263.963-.437 1.138-1.4.174-.699.174-1.834.174-2.884v-6.207c0-1.661-.174-2.447-.524-2.972-.437-.612-1.05-.962-1.924-.962-1.575 0-3.412 1.399-3.674 4.108 0 .524-.087 1.136-.087 1.836v4.109c0 .961-.088 2.097.087 2.884.174.962.437 1.136 1.136 1.399.263.088.35.174.526.174v.088h-6.649v-.088c.175 0 .263-.086.524-.174.7-.263.963-.437 1.138-1.399.174-.699.174-1.836.174-2.884v-6.206c0-1.662-.174-2.45-.613-2.973-.437-.612-1.049-.962-1.924-.962-1.75 0-3.412 1.486-3.674 4.195-.088.874-.088 1.923-.088 2.973v2.883c0 .963-.087 2.186.088 2.886.174.962.437 1.049 1.224 1.399l.524.175v.085h-6.648v-.085c.174 0 .264-.088.524-.175.788-.262.963-.437 1.138-1.399.174-.7.174-1.923.174-2.886v-6.118c0-.613 0-2.36-.087-2.885-.087-.7-.263-.874-.612-1.136-.35-.263-.701-.263-.964-.35v-.087h4.462c.173 0 .173 0 .173.174l-.086 3.497c.437-1.572 1.224-2.447 2.012-3.059.612-.437 1.749-.962 2.973-.962 1.574 0 2.712.437 3.324 1.223.35.437.963 1.4.963 2.885.437-1.66 1.312-2.622 2.1-3.147.786-.612 2.011-.962 2.887-.962 1.924 0 2.886.612 3.41 1.312.438.524.875 1.486.875 3.321v6.293c0 .963 0 2.099.175 2.886.174.962.437 1.137 1.136 1.399l.525.175v.085h-6.561v.18h.007zm9.098-12.239c-.35 0-.7-.086-1.049-.174-.351-.174-.614-.349-.788-.524-.263-.261-.437-.523-.524-.787-.175-.348-.175-.611-.175-1.048 0-.35.088-.7.175-1.05.174-.35.349-.611.524-.873.262-.263.524-.437.875-.525.349-.174.699-.174 1.049-.174s.701.088 1.05.174c.35.175.613.351.787.525.264.263.437.524.524.786.174.35.174.613.174 1.05 0 .35-.087.699-.174 1.049-.174.35-.35.613-.524.873-.174.261-.524.437-.874.524-.35.174-.7.174-1.05.174zm0-.262c.35 0 .613-.087.963-.175a1.36 1.36 0 00.699-.522c.175-.176.35-.437.526-.7.086-.264.173-.612.173-.874 0-.35-.087-.612-.173-.874a1.372 1.372 0 00-.526-.7c-.174-.174-.437-.349-.699-.523-.263-.088-.613-.175-.875-.175-.35 0-.612.087-.962.175a1.36 1.36 0 00-.701.523c-.174.175-.349.437-.524.7-.087.263-.174.612-.174.874 0 .348.087.612.174.873.087.262.263.524.524.7.175.174.438.35.701.523.261.088.611.175.874.175zm-1.049-3.846h1.223c.35 0 .701.088.875.263.174.175.263.35.263.612 0 .263-.088.437-.175.525-.087.173-.262.262-.437.348l.7.964h-.7l-.613-.874h-.437v.873h-.612v-2.71h-.087v-.001zm1.224 1.31c.175 0 .264 0 .351-.087.087-.086.087-.173.087-.261 0-.174 0-.264-.087-.264-.087-.086-.174-.086-.351-.086h-.612v.786h.612v-.088z"/></g><defs><clipPath id="clip0"><path fill="#fff" transform="translate(.375)" d="M0 0h136.463v25H0z"/></clipPath></defs></svg>