<svg width="110" height="20" fill="none" xmlns="http://www.w3.org/2000/svg"><g clip-path="url(#clip0)" fill="#AEAEAE"><path d="M0 .638v19.36h4.284v-6.324l1.255.014 1.255.015 1.843 3.148 1.842 3.148h4.918l-2.142-3.577c-1.178-1.968-2.135-3.58-2.126-3.584a6.9 6.9 0 001.994-1.34c.807-.802 1.287-1.716 1.555-2.957.136-.633.137-2.269 0-2.952-.537-2.703-2.343-4.287-5.486-4.813C8.728.7 8.027.682 4.325.662L0 .638zm4.284 3.77h1.758c1.862 0 2.241.037 2.865.272.408.154.892.527 1.114.859.307.46.405.792.434 1.48.043 1.013-.148 1.586-.72 2.16-.387.39-.737.588-1.311.744-.382.104-.607.118-2.242.14-.999.014-1.835.007-1.857-.016-.022-.023-.04-1.301-.04-2.84V4.409zm15.131 5.915V.647h13.07v3.761H23.7v3.98h7.7v3.761h-7.7v4.143h2.874c1.58 0 2.874.012 2.874.026 0 .025-1.29 2.496-1.727 3.313l-.198.367h-8.108v-9.675zm12.598 9.608c.016-.038 2.297-4.386 5.069-9.662l5.04-9.594L44.74.66c2.087-.012 2.611 0 2.589.054-.015.038-2.297 4.386-5.07 9.663l-5.042 9.594-2.616.014c-2.086.011-2.61 0-2.588-.055zm15.44-5.385V9.093l2.204-4.195c1.212-2.308 2.22-4.196 2.24-4.196.021 0 .259.313.529.695.46.653 2.75 3.904 3.53 5.015.195.277.369.503.386.502.018-.001 1.009-1.411 2.202-3.134l2.17-3.13h2.236l2.237-.002V20h-4.176v-5.996c0-3.298-.018-5.996-.04-5.994-.022 0-1.065 1.351-2.317 3-1.64 2.162-2.301 2.994-2.369 2.982-.051-.008-1.114-1.352-2.361-2.984l-2.268-2.97-.013 5.981-.014 5.98h-4.176v-5.452zM75.776.538l-.06.15c-.032.083-.838 2.248-1.79 4.81l-3.554 9.557a819.102 819.102 0 00-1.822 4.92c0 .013.97.024 2.156.023h2.155l.226-.64.726-2.071.5-1.43h3.41c1.875 0 3.409.005 3.409.013 0 .04 1.454 4.083 1.476 4.104.014.015 1.016.02 2.226.012l2.2-.015-1.46-3.924L81.96 6.33 79.805.538h-4.029zm1.938 5.765c.03-.036 2.068 5.752 2.064 5.86-.001.022-.93.04-2.063.04s-2.061-.018-2.062-.04c-.001-.062 2.02-5.813 2.06-5.86zM89.18 19.25c5.493-9.04 5.514-9.076 5.43-9.204A1560.07 1560.07 0 0188.996.675c0-.015 1.092-.028 2.428-.028h2.428l1.662 3.038c.913 1.67 1.681 3.044 1.707 3.053.025.008.799-1.34 1.72-2.997.92-1.656 1.69-3.03 1.711-3.053.02-.023 1.102-.035 2.404-.027l2.367.014-1.629 2.67-2.827 4.634-1.251 2.05c-.055.091.05.276 1.536 2.72.319.525 1.405 2.315 2.413 3.98a788.721 788.721 0 001.913 3.148l.08.123-2.458-.014-2.457-.014-1.774-3.188c-.976-1.752-1.795-3.194-1.821-3.202-.026-.01-.2.26-.385.597-.187.338-.994 1.78-1.794 3.203l-1.455 2.59-2.395.014-2.395.014.456-.75zM107.728 0c-.36.004-.72.15-1.004.436-.695.698-.408 1.98.517 2.31.325.117.774.105 1.064-.026.934-.425 1.155-1.603.433-2.306a1.421 1.421 0 00-1.01-.414zm.047.218c.412.005.803.246 1.021.672.083.162.114.391.098.617a1.27 1.27 0 01-.187.605 1.411 1.411 0 01-.377.355c-.415.24-.84.218-1.238-.063a1.208 1.208 0 01.121-2.042c.182-.1.374-.146.562-.144z"/><path d="M107.217.648v1.58h.271v-.654h.189c.216 0 .32.123.377.45.015.086.04.206.078.205h.21c.017-.015.004-.06-.007-.096a14.824 14.824 0 01-.086-.325c-.033-.127-.04-.21-.107-.264-.037-.03-.106-.077-.098-.1.008-.024.042-.035.109-.087a.37.37 0 00.005-.597c-.115-.09-.22-.112-.542-.112h-.399zm.271.163h.19c.195 0 .406.151.406.291 0 .04-.044.114-.099.164a.517.517 0 01-.298.09h-.199V.811z"/></g><defs><clipPath id="clip0"><path fill="#fff" d="M0 0h109.167v20H0z"/></clipPath></defs></svg>