<svg width="87" height="23" fill="none" xmlns="http://www.w3.org/2000/svg"><g clip-path="url(#clip0)" fill="#AEAEAE"><path d="M67.047 0a2.251 2.251 0 012.248 2.254 2.251 2.251 0 01-2.248 2.254A2.25 2.25 0 0164.8 2.254 2.25 2.25 0 0167.047 0zM22.926 22.813c-3.271 0-4.892-1.876-4.892-5v-8.25h-2.96v-3.22h2.96V2.219l3.895-.97v5.095h4.08v3.218h-4.08v7.907c0 1.25.56 1.78 1.807 1.78.81 0 1.464-.03 2.523-.155v3.281c-1.09.281-2.18.438-3.333.438zm13.911-13c-2.741 0-4.174 1.968-4.174 4.593v8.188h-3.926V6.344h3.302l.343 2.437c.748-1.875 2.68-2.656 4.58-2.656.405 0 .81.031 1.215.094v3.75a6.548 6.548 0 00-1.34-.156zm13.995 12.781l-.28-2.125C49.771 22.062 47.964 23 45.908 23c-3.458 0-5.608-2.344-5.608-5.813V6.345h3.894v9.968c0 1.907.748 3.094 2.804 3.094.904 0 1.527-.344 1.994-.812.935-.876 1.184-2.344 1.184-3.656V6.344h3.895v16.25h-3.24zm10.214.187c-2.649 0-4.424-1.281-4.424-4.375V0h3.925v17.75c0 .938.218 1.562 1.558 1.562.343 0 .436-.03.654-.03v3.28c-.779.157-.934.219-1.713.219zm4.022-.187V6.344h3.957v16.25h-3.957zm16.146-7.219l-4.113.312c-1.184.094-2.337.813-2.337 2.125 0 1.25 1.09 2.032 2.306 2.032 2.43 0 4.144-1.313 4.144-3.719v-.75zm3.271 7.469c-1.682 0-2.617-1.063-2.742-2.282C80.996 21.875 79.126 23 76.822 23c-3.864 0-5.858-2.438-5.858-5.094 0-3.093 2.4-4.875 5.484-5.094l4.767-.343v-1c0-1.531-.53-2.563-2.742-2.563-1.807 0-2.866.813-2.96 2.313h-3.77c.218-3.657 3.116-5.281 6.73-5.281 2.773 0 5.14.875 6.075 3.312.406 1.031.468 2.187.468 3.281v6.031c0 .75.249 1.032.903 1.032.25 0 .499-.063.499-.063v2.875c-.654.282-.997.438-1.932.438zM6.07 9.274a2.696 2.696 0 01-2.691-2.7c0-1.492 1.205-2.7 2.692-2.7a2.696 2.696 0 012.692 2.7c0 1.491-1.205 2.7-2.692 2.7zM6.053 0C2.475.02.167 2.427.167 6.068c0 3.013 1.96 5.59 3.077 9.508.64 2.243.983 4.99 1.163 7.018h3.29c.18-2.028.524-4.775 1.163-7.018 1.117-3.918 3.077-6.495 3.077-9.508C11.937 2.428 9.628.02 6.052 0z"/></g><defs><clipPath id="clip0"><path fill="#fff" transform="translate(.167)" d="M0 0h86.25v23H0z"/></clipPath></defs></svg>