<svg width="111" height="23" fill="none" xmlns="http://www.w3.org/2000/svg"><g clip-path="url(#clip0)" fill="#AEAEAE"><path d="M68.67 15.576c0-4.255 3.435-7.407 7.636-7.407 4.16 0 7.595 3.152 7.595 7.407 0 4.267-3.435 7.424-7.595 7.424-4.201-.005-7.636-3.157-7.636-7.424zM42.735 3.11v.862c0 .322-.069.42-.132.552l-8.13 13.837c-.017.023-.007.057.029.057h8.66v4.118H27.566v-.805c0-.357.046-.431.242-.788l8.039-13.647c.017-.028.005-.057-.03-.057h-8.004v-4.13h14.921zm50.102 19.42h-4.165l-4.53-14.003h4.478l1.295 4.239a194.144 194.144 0 011.156 4.037c.011.034.058.028.063 0 0 0 .748-2.686 1.175-4.037l1.358-4.24h3.302l1.336 4.24c.448 1.449 1.15 4.037 1.15 4.037.011.034.052.034.07 0 0 0 .724-2.617 1.156-4.037l1.295-4.24h4.16l-4.5 14.004h-4.091l-1.116-3.52c-.427-1.38-1.18-4.06-1.18-4.06-.012-.034-.058-.034-.063 0 0 0-.755 2.629-1.209 4.038l-1.14 3.542zm-42.258 0h-4.53V8.526h4.53v14.003zm3.435-21.405h4.529V22.53h-4.53V1.124zm7.883 0h4.529V22.53h-4.529V1.124zm17.66 14.452c0-2.082-1.49-3.503-3.251-3.503-1.801 0-3.292 1.421-3.292 3.503 0 2.1 1.491 3.502 3.292 3.502 1.76 0 3.251-1.402 3.251-3.502zm28.834-10.409c-.932 0-1.692.76-1.692 1.691 0 .932.76 1.69 1.692 1.69.932 0 1.692-.758 1.692-1.69 0-.932-.76-1.69-1.692-1.69zm0 3.054a1.363 1.363 0 11-.001-2.726 1.363 1.363 0 01.001 2.726zm.099-2.375c.391 0 .672.287.672.685a.66.66 0 01-.414.638l.386.632h-.368l-.358-.586h-.316V7.8h-.322V5.846h.72zm-.018.287h-.38v.794h.38c.213 0 .368-.167.368-.396 0-.23-.155-.398-.368-.398zM48.312 1.51c1.409 0 2.578 1.138 2.578 2.542 0 1.403-1.169 2.541-2.578 2.541-1.41 0-2.578-1.138-2.578-2.541-.001-1.404 1.167-2.542 2.578-2.542zM5.747 20.166c-.086.047-.156.035-.226-.034l-1.93-2.298c-.05-.064-.057-.099.012-.196 1.492-2.183 4.536-5.583 6.476-7.02.035-.024.024-.053-.017-.035-2.022.658-7.77 3.129-9.895 4.33v7.804h20.687v-7.515c-2.82.478-11.265 2.99-15.107 4.964zm8.41-14.04c.105-.023.151.011.214.08.358.399 1.503 1.796 1.814 2.177.058.07.018.145-.028.185-2.311 1.8-4.882 4.353-6.315 6.177-.028.04-.005.04.018.035 2.496-1.074 8.358-2.79 10.999-3.268V8.17L10.525 0 .173 8.163v3.654c3.206-1.904 10.623-4.854 13.985-5.691z"/></g><defs><clipPath id="clip0"><path fill="#fff" transform="translate(.167)" d="M0 0h110.208v23H0z"/></clipPath></defs></svg>