<svg width="50" height="32" fill="none" xmlns="http://www.w3.org/2000/svg"><g clip-path="url(#clip0)" fill="#53E1A5"><path d="M36.932 22.615c-.796 2.714-2.5 4.863-3.75 5.993-.682.679-.796 1.81-.114 2.601l.228.226c.568.566 1.477.792 2.159.453C50.34 24.084 50.114 13.681 50 11.985v-.565C50 5.202 44.886.114 38.636.114c-6.25 0-11.363 5.088-11.363 11.307-.114 5.654 4.204 10.403 9.659 11.194zm-27.159 0c-.682 2.714-2.387 4.75-3.637 5.993-.681.678-.795 1.81-.113 2.6l.227.227c.568.565 1.477.791 2.16.339 14.772-7.689 14.544-18.092 14.43-19.788v-.565C22.84 5.2 17.728.113 11.478.113 5.227.113.114 5.202.114 11.421 0 17.074 4.318 21.823 9.773 22.615z"/></g><defs><clipPath id="clip0"><path fill="#fff" transform="rotate(-180 25 16)" d="M0 0h50v32H0z"/></clipPath></defs></svg>