<svg width="16" height="16" fill="none" xmlns="http://www.w3.org/2000/svg"><path d="M4.054 9.546c.173.168.252.41.213.647l-.593 3.28a.72.72 0 00.3.72.734.734 0 00.78.053l2.953-1.54a.753.753 0 01.333-.087h.181a.54.54 0 01.18.06l2.953 1.547c.146.074.312.1.474.074a.74.74 0 00.593-.848l-.593-3.28a.746.746 0 01.212-.652l2.408-2.333a.72.72 0 00.179-.754.748.748 0 00-.593-.5l-3.313-.48a.741.741 0 01-.587-.407l-1.46-2.993a.694.694 0 00-.133-.18l-.06-.046a.447.447 0 00-.107-.087L8.3 1.713l-.113-.046h-.281a.746.746 0 00-.587.4L5.84 5.047a.74.74 0 01-.553.405l-3.314.481a.756.756 0 00-.606.5.724.724 0 00.193.753l2.493 2.36z" fill="#F4BF00"/></svg>