<svg width="48" height="48" fill="none" xmlns="http://www.w3.org/2000/svg"><path d="M31.955 36.144l-1.087-1.087c-.162.19-.325.378-.504.557-.18.178-.367.343-.558.504l1.088 1.087 1.061-1.061z" fill="#C0DFF8"/><path d="M9.75 42.75a.449.449 0 01-.11.013.72.72 0 01-.732-.503A1.494 1.494 0 006 42.75c.002.228.057.452.16.655a.75.75 0 01-1.004 1.005 1.495 1.495 0 00-1.954.59h9.45a3.006 3.006 0 00-2.902-2.25zm20.084-3.424a.75.75 0 010-1.06l-1.27-1.27a9 9 0 113.181-3.182l1.27 1.27a.75.75 0 011.061 0l2.674 2.673V23.561L24.53 11.34a.766.766 0 00-1.06 0L11.25 23.56v17.95A4.51 4.51 0 0114.183 45h21.325l-5.675-5.674z" fill="#fff"/><path d="M23.47 6.84L6.155 24.156a.841.841 0 101.19 1.19L22.409 10.28a2.25 2.25 0 013.183 0l15.063 15.065a.84.84 0 101.19-1.19L24.53 6.841a.766.766 0 00-1.06 0zm13.28 10.1V9h-4.5v3.44l4.5 4.5z" fill="#fff"/><path d="M33.537 40.923l2.122-2.121 4.242 4.242-2.122 2.121-4.242-4.242zm-2.12-2.123l2.122-2.12 1.06 1.06-2.121 2.121-1.06-1.06z" fill="#C0DFF8"/><path d="M30.75 6h7.5v1.5h-7.5V6z" fill="#fff"/><path d="M29.303 23.947a7.5 7.5 0 100 10.606 7.474 7.474 0 000-10.606zm-1.06 9.546a6 6 0 110-8.486 5.98 5.98 0 010 8.486z" fill="#C0DFF8"/><path d="M27.182 26.068a4.5 4.5 0 100 6.364 4.487 4.487 0 000-6.364z" fill="#C0DFF8"/></svg>