<svg width="48" height="48" fill="none" xmlns="http://www.w3.org/2000/svg"><path d="M19.69 28.35h3.007v.75H19.69v-.75zm-6.766 8.25h3.007v3h-3.007v-3zm11.276-6h3.007v.75H24.2v-.75zm-4.51 0h3.007v.75H19.69v-.75zm16.538-13.06V9.6h-4.51v3.44l4.51 4.5zM21.8 10.934l.057-.057a2.259 2.259 0 013.183 0l15.102 15.068a.84.84 0 101.192-1.19L23.974 7.438a.753.753 0 00-1.056 0l-1.61 1.605c.223.614.387 1.247.492 1.891z" fill="#fff"/><path d="M11.42 21.6c4.983 0 9.022-4.03 9.022-9s-4.04-9-9.021-9c-4.982 0-9.021 4.03-9.021 9 .006 4.968 4.04 8.995 9.02 9zm-3.006-6.75h1.503v.75c0 .414.337.75.752.75h1.503a.75.75 0 00.752-.75v-1.5a.75.75 0 00-.752-.75H10.67a2.253 2.253 0 01-2.255-2.25V9.6c0-1.243 1.01-2.25 2.255-2.25v-1.5h1.503v1.5a2.253 2.253 0 012.256 2.25v.75h-1.504V9.6a.75.75 0 00-.752-.75H10.67a.75.75 0 00-.752.75v1.5c0 .414.337.75.752.75h1.503a2.253 2.253 0 012.256 2.25v1.5c0 1.243-1.01 2.25-2.256 2.25v1.5H10.67v-1.5a2.253 2.253 0 01-2.255-2.25v-.75z" fill="#C0DFF8"/><path d="M24.2 28.35h3.007v.75H24.2v-.75zM30.214 6.6h7.517v1.5h-7.517V6.6zm-3.007 39V35.1H19.69v10.5h7.517zm-6.765-5.25h.751v-1.5h-.752v-1.5h1.504a.75.75 0 01.752.75v3a.75.75 0 01-.752.75h-1.503v-1.5zM5.563 24.755a.842.842 0 001.192 1.19l2.995-2.989a10.548 10.548 0 01-1.895-.488l-2.292 2.287zm6.185-1.671l-.016.016h23.433l-11.19-11.162a.753.753 0 00-1.057 0l-.992.99c-.178 5.532-4.632 9.976-10.177 10.156zM41.49 43.35a.75.75 0 01-.752-.75c0-1.243-1.01-2.25-2.255-2.25a2.253 2.253 0 00-2.255 2.25c.003.193.032.384.085.57a.748.748 0 01-.757.94c-.025 0-.1-.009-.127-.011a2.237 2.237 0 00-2.08 1.5H44.4a3.01 3.01 0 00-2.91-2.249zm-32.325 0a.73.73 0 01-.844-.49 1.498 1.498 0 00-2.915.49c.003.228.058.453.161.656A.75.75 0 014.56 45.01a1.5 1.5 0 00-1.955.59h9.472a3.01 3.01 0 00-2.912-2.25z" fill="#fff"/><path d="M35.47 40.38c.215-.288.47-.544.758-.76V24.6H10.669v17.511a4.512 4.512 0 012.94 3.489h4.577V34.35a.75.75 0 01.752-.75h9.02a.75.75 0 01.753.75V45.6h3.09a3.76 3.76 0 012.923-2.925V42.6a3.691 3.691 0 01.385-1.62.732.732 0 01-.385.12h-4.51a.75.75 0 01-.752-.75v-4.5a.75.75 0 01.752-.75h4.51a.75.75 0 01.752.75v4.5c0 .011-.006.02-.006.03zm-18.035-.03a.75.75 0 01-.752.75h-4.51a.75.75 0 01-.752-.75v-4.5a.75.75 0 01.752-.75h4.51a.75.75 0 01.752.75v4.5zm11.276-9c0 .828-.674 1.5-1.504 1.5H19.69c-.83 0-1.504-.672-1.504-1.5v-3c0-.828.674-1.5 1.504-1.5h7.517c.83 0 1.504.672 1.504 1.5v3z" fill="#fff"/><path d="M30.966 36.6h3.007v3h-3.007v-3z" fill="#fff"/></svg>