<svg width="48" height="48" fill="none" xmlns="http://www.w3.org/2000/svg"><path d="M27.711 33.122v7.93h9.165v-7.96l-4.521-3.944-4.644 3.974z" fill="#C0DFF8"/><path d="M9.16 39.64l3.026 2.416 3.025-2.416a.54.54 0 01.674 0l3.025 2.416 3.013-2.407.194-.172a10.749 10.749 0 011.241-9.596 10.788 10.788 0 018.458-4.725V6.863c0-1.251.542-2.44 1.486-3.263H9.832A3.833 3.833 0 006 7.425v34.2l2.486-1.985a.54.54 0 01.674 0zm6.685-30.162h13.02a.54.54 0 110 1.077h-13.02a.539.539 0 110-1.077zm0 5.114h13.02a.539.539 0 110 1.077h-13.02a.539.539 0 110-1.077zm0 5.114h13.02a.539.539 0 110 1.077h-13.02a.539.539 0 110-1.077zm0 5.114h7.898a.54.54 0 110 1.077h-7.898a.539.539 0 110-1.077zm-.453 10.3h4.56a.539.539 0 110 1.078h-4.56a.539.539 0 110-1.077zM11.59 9.479h1.817a.539.539 0 110 1.077H11.59a.54.54 0 110-1.077zm0 5.114h1.817a.539.539 0 110 1.077H11.59a.54.54 0 110-1.077zm0 5.114h1.817a.539.539 0 110 1.077H11.59a.539.539 0 110-1.077zm0 5.114h1.817a.539.539 0 110 1.077H11.59a.539.539 0 110-1.077zM8.95 9.478h.24a.539.539 0 110 1.077h-.24a.54.54 0 110-1.077zm0 5.114h.24a.539.539 0 110 1.077h-.24a.54.54 0 110-1.077zm0 5.114h.24a.539.539 0 110 1.077h-.24a.539.539 0 110-1.077zm0 5.114h.24a.539.539 0 110 1.077h-.24a.539.539 0 110-1.077zm1.528 9.7a2.063 2.063 0 01-.54-4.055v-.371a.539.539 0 011.08 0v.37a2.07 2.07 0 011.527 1.992.54.54 0 01-1.079 0 .987.987 0 10-.988.986 2.063 2.063 0 01.54 4.055v.441a.54.54 0 01-1.08 0v-.44a2.067 2.067 0 01-1.527-1.992.539.539 0 011.079 0c0 .54.436.98.977.986l.011-.001a.987.987 0 100-1.972z" fill="#FAFAFA"/><path d="M32.294 26.221c-5.361 0-9.707 4.339-9.707 9.69 0 5.35 4.346 9.69 9.707 9.69 5.36 0 9.706-4.34 9.706-9.69-.006-5.349-4.348-9.684-9.706-9.69zm7.148 8.395a.54.54 0 01-.761.05l-.726-.633v7.557a.54.54 0 01-.54.539H27.172a.54.54 0 01-.54-.539v-7.545l-.73.625a.54.54 0 11-.702-.818l1.584-1.355a.571.571 0 01.078-.067l5.145-4.402a.54.54 0 01.706.003l6.678 5.824a.537.537 0 01.051.76z" fill="#C0DFF8"/><path d="M36.163 3.6a3.27 3.27 0 00-3.268 3.263v9.477h6.537V6.863A3.27 3.27 0 0036.163 3.6z" fill="#FAFAFA"/></svg>