<svg width="16" height="16" fill="none" xmlns="http://www.w3.org/2000/svg"><g clip-path="url(#clip0)" fill="#626262"><path d="M1.864 7.251a1.427 1.427 0 00.667-.066v5.159c0 .259.21.469.469.469h10a.47.47 0 00.469-.47V7.186a1.414 1.414 0 001.594-.482c.225-.3.32-.67.267-1.043a1.397 1.397 0 00-.549-.926L13.47 3.75V.469A.469.469 0 0013 0h-1.875a.469.469 0 00-.469.469V1.64L8.843.28a1.415 1.415 0 00-1.687.001L1.22 4.734a1.402 1.402 0 00-.281 1.969c.225.3.554.495.926.548zm1.605 4.624V6.562L8 3.164l4.531 3.398v5.313H3.47zM11.594.937h.937v2.11l-.937-.703V.938zM1.599 5.793a.466.466 0 01.182-.309L7.72 1.031a.469.469 0 01.562 0l5.938 4.453a.466.466 0 01.093.657.465.465 0 01-.656.093L8.281 2.203a.469.469 0 00-.562 0L2.344 6.234a.466.466 0 01-.656-.094.466.466 0 01-.09-.347z"/><path d="M15.863 13.95l-1.25-1.25a.469.469 0 00-.663.663l.45.45H1.6l.45-.45a.469.469 0 10-.663-.663l-1.25 1.25a.469.469 0 000 .663l1.25 1.25a.467.467 0 00.663 0 .469.469 0 000-.663l-.45-.45h12.8l-.45.45a.469.469 0 10.663.663l1.25-1.25a.469.469 0 000-.663zm-5.05-7.387H5.186a.469.469 0 00-.468.468v2.813c0 .259.21.469.468.469h5.625c.26 0 .47-.21.47-.47V7.032a.469.469 0 00-.47-.468zM5.655 7.5H7.53v1.875H5.656V7.5zm4.688 1.875H8.469V7.5h1.875v1.875z"/></g><defs><clipPath id="clip0"><path fill="#fff" d="M0 0h16v16H0z"/></clipPath></defs></svg>