<svg width="50" height="50" fill="none" xmlns="http://www.w3.org/2000/svg"><g clip-path="url(#clip0)" fill="#fff"><path d="M39.583 16.23v13.687a3.874 3.874 0 01-3.583.562l-.396-.146c1.23-2.416.771-5.375-1.166-7.354l-7.021-7.02L33 14l6.583 2.23zm-16.937 9.333L30 32.792v.02a4.042 4.042 0 01-1.042 1.772 4.338 4.338 0 01-3.25 1.25L17.875 28a.822.822 0 00-.27.625c0 .27.124.563.395.73l7.438 7.291c-.209.5-.5.958-.896 1.354a4.366 4.366 0 01-3.105 1.271 4.274 4.274 0 01-3-1.208l-4.583-4.146a8.931 8.931 0 00-3.458-1.959c.02-.062.02-.124.02-.187v-17.5l5.355-2.208a5.434 5.434 0 014.687.25l-.333.166c-1.792.896-3.063 2.604-3.417 4.646a6.397 6.397 0 001.771 5.458 6.303 6.303 0 003.917 1.813.735.735 0 00-.146.437c0 .292.125.563.396.73z"/><path d="M33.625 29.667a3.38 3.38 0 01-.646.895c-.812.813-1.77 1.271-2.77 1.355l-7.521-7.5h.25c1 0 2-.25 2.875-.688l.666-.354 3.584-1.813 2.895 2.896.021.021c1.375 1.396 1.604 3.542.646 5.188zM6.77 33.333H1.563C.7 33.333 0 32.633 0 31.771V14.062C0 13.2.7 12.5 1.562 12.5h5.209c.862 0 1.562.7 1.562 1.563V31.77c0 .862-.7 1.562-1.562 1.562zm41.668 0h-5.209c-.862 0-1.562-.7-1.562-1.562V14.062c0-.862.7-1.562 1.562-1.562h5.209c.862 0 1.562.7 1.562 1.563V31.77c0 .862-.7 1.562-1.563 1.562zM37.375 12.708c-.02 0-.042-.02-.083-.02l-4.771-1.959a5.506 5.506 0 00-4.584.167L22.25 13.75l-1.188.583a4.294 4.294 0 00-2.291 3.104 4.27 4.27 0 001.187 3.667 4.212 4.212 0 002.98 1.23 4.18 4.18 0 001.916-.459l.688-.354 2.979-1.5 8.291-4.167L39.584 17v-2.938c0-.145 0-.291.042-.416l-2.25-.938z"/></g><defs><clipPath id="clip0"><path fill="#fff" d="M0 0h50v50H0z"/></clipPath></defs></svg>