<svg width="50" height="50" fill="none" xmlns="http://www.w3.org/2000/svg"><path d="M38.425 4.528c-.79 0-1.438.647-1.438 1.438 0 .79.647 1.437 1.438 1.437.79 0 1.438-.647 1.438-1.437 0-.791-.647-1.438-1.438-1.438z" fill="#fff"/><path d="M37.706 0a6.442 6.442 0 00-6.469 6.469c0 .769-.187 1.546-.736 2.084l-9.83 9.631a.78.78 0 00-.177.353c-.048.192-.018.392.02.585l.661 3.303c.072.36.36.575.719.575h3.594c.43 0 .718-.288.718-.719 0-1.19.966-2.156 2.157-2.156h.718c.431 0 .719-.287.719-.719 0-1.19.965-2.156 2.156-2.156.431 0 .719-.287.719-.719 0-1.19.965-2.156 2.156-2.156a.67.67 0 00.502-.196c.054-.056.098-.122.147-.183l.21-.26c.483-.59 1.254-.798 2.016-.798a6.442 6.442 0 006.469-6.47A6.442 6.442 0 0037.706 0zm.719 8.84a2.883 2.883 0 01-2.875-2.874 2.883 2.883 0 012.875-2.875A2.883 2.883 0 0141.3 5.966a2.883 2.883 0 01-2.875 2.875z" fill="#fff"/><path fill-rule="evenodd" clip-rule="evenodd" d="M42.925 30.75c3.75-2 5.167-1.917 6.667.083.666 1 .5 2.5-.5 3.333l-12.584 9.667a4.887 4.887 0 01-2.75 1.417 5.259 5.259 0 01-1.014.163 2.866 2.866 0 00-.304.027l-10.682 1.643c-1.666.25-3.416.417-5.083.417H7V29.075c2.692-1.261 6.519-2.317 8.842-.575 1.25.917 3 1.5 4.75 1.5h3.25c2.416 0 4.666 1.167 6 3.083.5.75.333 1.917.166 1.917h-12.5c-2.583 0-4.166 1.25-4.166 3.333 0 .5.333.834.833.834.5 0 .833-.334.833-.834 0-.416 0-1.666 2.5-1.666h12.5c.31 0 .601-.156.882-.306.065-.034.13-.069.194-.1.513-.258 1.117-.366 1.674-.428 1.25-.083 2.334-.333 3-.666l7.167-4.417zM5 29.472c0-.629-.51-1.139-1.138-1.139H1.256c-.689 0-1.248.56-1.248 1.248v18.755C.008 49.255.753 50 1.672 50h1.661C4.253 50 5 49.254 5 48.333V29.472z" fill="#fff"/></svg>