<svg width="20" height="21" fill="none" xmlns="http://www.w3.org/2000/svg"><path d="M7.631 17.81v-2.556c0-.65.53-1.178 1.187-1.183h2.405c.66 0 1.194.53 1.194 1.183v2.563a1.02 1.02 0 001.002 1.016h1.604c1.598 0 2.894-1.282 2.894-2.865v0-7.27a2.033 2.033 0 00-.802-1.587l-5.484-4.373a2.65 2.65 0 00-3.286 0l-5.46 4.38c-.5.38-.795.965-.802 1.588v7.262c0 1.583 1.296 2.865 2.894 2.865h1.604c.571 0 1.034-.458 1.034-1.023v0" stroke="#282F65" stroke-width="2" stroke-linecap="round" stroke-linejoin="round"/></svg>