<svg width="92" height="32" fill="none" xmlns="http://www.w3.org/2000/svg"><path d="M44.283 6.479v2.889h-8.654v5.778h7.304v2.902H35.63V26h-3.66V6.479h12.312zM57.797 26H56.3c-.315 0-.563-.045-.743-.135-.18-.099-.315-.292-.405-.58l-.297-.986c-.35.315-.697.594-1.04.837a6.263 6.263 0 01-1.039.594c-.36.162-.742.284-1.147.364a6.904 6.904 0 01-1.35.122 5.463 5.463 0 01-1.62-.23 3.641 3.641 0 01-1.283-.715 3.257 3.257 0 01-.823-1.175c-.198-.468-.297-1.012-.297-1.633 0-.522.135-1.035.405-1.539.279-.513.738-.972 1.377-1.377.639-.414 1.49-.756 2.551-1.026 1.062-.27 2.38-.423 3.956-.459v-.81c0-.927-.198-1.611-.594-2.052-.387-.45-.954-.675-1.701-.675-.54 0-.99.063-1.35.189a5.13 5.13 0 00-.945.432 39 39 0 01-.73.418 1.494 1.494 0 01-.742.19.965.965 0 01-.58-.176 1.382 1.382 0 01-.392-.432l-.607-1.067c1.593-1.458 3.514-2.187 5.764-2.187.81 0 1.53.136 2.16.405.64.261 1.18.63 1.62 1.107a4.62 4.62 0 011 1.688c.233.657.35 1.377.35 2.16V26zm-6.48-2.079c.342 0 .657-.031.945-.095.288-.063.558-.157.81-.283a4.24 4.24 0 00.743-.459c.243-.189.486-.41.729-.662v-2.335c-.972.045-1.787.13-2.444.256-.648.117-1.17.27-1.566.46-.396.188-.68.409-.85.661a1.493 1.493 0 00-.243.824c0 .584.17 1.003.513 1.255.35.252.805.378 1.363.378zm14.308 2.295c-1.197 0-2.12-.338-2.767-1.013-.648-.683-.972-1.624-.972-2.821v-7.736h-1.404a.7.7 0 01-.473-.175c-.126-.117-.189-.293-.189-.527v-1.323l2.228-.364.702-3.78a.68.68 0 01.243-.418.822.822 0 01.5-.149h1.727v4.36h3.645v2.377H65.22v7.505c0 .432.108.77.324 1.013.216.243.504.364.864.364.207 0 .378-.022.513-.067.144-.054.266-.108.365-.162.108-.054.202-.104.283-.149a.435.435 0 01.243-.08.36.36 0 01.243.08c.063.046.13.117.203.216l.999 1.62a5.048 5.048 0 01-1.674.919 6.23 6.23 0 01-1.958.31zM77.43 11.933c1.035 0 1.971.167 2.808.5a6.057 6.057 0 012.16 1.417c.594.612 1.053 1.359 1.377 2.241.324.882.486 1.867.486 2.956 0 1.098-.162 2.088-.486 2.97-.324.883-.783 1.634-1.377 2.255a5.97 5.97 0 01-2.16 1.431c-.837.333-1.773.5-2.808.5s-1.975-.167-2.821-.5a6.102 6.102 0 01-2.174-1.431c-.594-.621-1.057-1.372-1.39-2.255-.324-.881-.486-1.872-.486-2.97 0-1.088.162-2.074.486-2.956.333-.882.796-1.629 1.39-2.241a6.193 6.193 0 012.174-1.418c.846-.332 1.786-.499 2.821-.499zm0 11.704c1.152 0 2.003-.387 2.552-1.16.558-.774.837-1.909.837-3.402 0-1.494-.28-2.633-.837-3.416-.55-.783-1.4-1.175-2.552-1.175-1.17 0-2.034.396-2.592 1.188-.558.784-.837 1.918-.837 3.402 0 1.485.28 2.62.837 3.402.558.774 1.422 1.162 2.592 1.162z" fill="#282F65"/><path d="M86.067 24.164c0-.279.05-.545.148-.797.108-.252.252-.468.432-.648.19-.18.41-.324.662-.431.252-.108.522-.163.81-.163a2 2 0 01.796.163c.252.107.468.252.648.431.18.18.324.396.432.648a2 2 0 01.162.797c0 .288-.054.558-.162.81a2.086 2.086 0 01-.432.634c-.18.18-.396.32-.648.419a2 2 0 01-.796.162c-.288 0-.558-.054-.81-.162a2.019 2.019 0 01-.662-.419 2.086 2.086 0 01-.432-.634 2.195 2.195 0 01-.148-.81z" fill="#FFA800"/><path fill-rule="evenodd" clip-rule="evenodd" d="M20.828 8.63c.241-.973-.941-1.655-1.664-.96l-3.504 3.37-4.813-2.778a1 1 0 00-1.47.626L6.028 22.422c-.24.973.942 1.656 1.664.96l3.504-3.37 4.813 2.778a1 1 0 001.47-.626L20.83 8.63zm-9.632 11.381l6.542-6.295a1 1 0 00-.193-1.586l-1.885-1.09-6.542 6.296a1 1 0 00.194 1.586l1.884 1.088z" fill="#282F65"/></svg>